<?xml version="1.0" encoding="utf-8"?>
<!-- Generator: Adobe Illustrator 22.1.0, SVG Export Plug-In . SVG Version: 6.00 Build 0)  -->
<svg version="1.1" id="Capa_1" xmlns="http://www.w3.org/2000/svg" xmlns:xlink="http://www.w3.org/1999/xlink" x="0px" y="0px"
	 viewBox="0 0 162 162" style="enable-background:new 0 0 162 162;" xml:space="preserve">
<style type="text/css">
	.st0{fill:#1B75BB;}
	.st1{fill:#FFFFFF;}
</style>
<g>
	<g>
		<path class="st0" d="M61.8-6.4c0.2,0.1,0.5,0.2,0.4,0.2C62.3-6.2,62.1-6.4,61.8-6.4L61.8-6.4z"/>
		<path class="st0" d="M59.9-4.4L59.9-4.4L59.9-4.4z"/>
		<path class="st0" d="M94.8-6.5L94.8-6.5L94.8-6.5z"/>
	</g>
	<g>
		<path class="st0" d="M77.4,17.3c0.6,0.7,1.3,1.3,2.1,1.8c1.2,0.7,2.5,1,3.9,1.2c-1.3-0.1-2.7-0.5-3.9-1.2
			C78.7,18.6,78,18,77.4,17.3z"/>
		<path class="st1" d="M35.8,141c0,0-0.1,0-0.1,0c-0.1,0.1-0.1,0.2-0.1,0.3c0,0.1,0.1,0.1,0.2,0.1c0,0,0.1,0,0.1,0
			c0.1-0.1,0.1-0.2,0.1-0.3C35.9,141,35.8,141,35.8,141z"/>
		<path class="st1" d="M58.1,99.6c-0.1,0-0.1,0-0.2,0c-0.2,0.1-0.2,0.2-0.2,0.4c0,0.1,0.1,0.1,0.2,0.2c0.2-0.1,0.3-0.2,0.4-0.3
			c0,0,0-0.1,0-0.1C58.2,99.7,58.1,99.6,58.1,99.6z"/>
		<path class="st1" d="M49.6,80.5c-0.9,0-1.7,0.8-1.7,1.7c0,0.9,0.8,1.7,1.7,1.7c0.9,0,1.7-0.8,1.7-1.7
			C51.2,81.3,50.5,80.5,49.6,80.5z"/>
		<path class="st0" d="M90.1,18.5c-0.1,0-0.1,0-0.2,0c-0.4,0.1-0.9,0.2-1.3,0.2c0.4-0.1,0.9-0.1,1.3-0.2
			C90,18.6,90.1,18.6,90.1,18.5z"/>
		<path class="st1" d="M43.1,148.3c0.1,0,0.1,0,0.2,0c0,0,0-0.1,0.1-0.1c0-0.1,0-0.2-0.1-0.2c-0.1,0-0.1,0-0.2,0c0,0,0,0.1-0.1,0.1
			C42.9,148.2,43,148.2,43.1,148.3z"/>
		<path class="st1" d="M37.7,143.6c0,0-0.1,0-0.1,0.1c-0.1,0.1-0.1,0.2,0,0.3c0.1,0.1,0.1,0.1,0.2,0.1c0,0,0.1,0,0.1-0.1
			c0.1-0.1,0.1-0.2,0-0.3C37.9,143.6,37.8,143.6,37.7,143.6z"/>
		<path class="st1" d="M33.4,138c-0.1,0-0.1,0-0.2,0.1c-0.1,0.1-0.2,0.3-0.1,0.4c0.1,0.1,0.1,0.1,0.2,0.1c0.1,0,0.1,0,0.2-0.1
			c0.1-0.1,0.2-0.3,0.1-0.4C33.6,138,33.5,138,33.4,138z"/>
		<path class="st1" d="M66.5,142.5c-0.3,0-0.7,0.2-0.9,0.4c-0.3,0.5-0.2,1.1,0.3,1.5c0.2,0.1,0.4,0.2,0.6,0.2c0.3,0,0.7-0.2,0.9-0.5
			c0.3-0.5,0.2-1.1-0.3-1.5C66.9,142.6,66.7,142.5,66.5,142.5z"/>
		<path class="st1" d="M40.4,146.3C40.5,146.3,40.5,146.2,40.4,146.3c0.2-0.2,0.1-0.3,0.1-0.3c-0.1,0-0.1,0-0.2,0c0,0-0.1,0-0.1,0.1
			c-0.1,0.1,0,0.2,0,0.3C40.3,146.3,40.4,146.3,40.4,146.3z"/>
		<path class="st1" d="M54,81.3c-0.1,0-0.1,0-0.1-0.1c0-0.1,0-0.1,0.1-0.1c0.1,0,0.2-0.1,0.4-0.1c-0.1-0.1-0.1-0.3-0.2-0.4
			c-0.4-2,2.6-6.2,1.4-6.7c-1.3-0.6-3.4,3.1-6,3.4c-2.5,0.3-4.8-4.2-6-3.4c-1.2,0.8,1.9,5.1,1.4,6.7c-0.5,1.6-5.5,3.3-4.6,4.5
			c0.8,1.3,5.1-0.3,6.4,0.9c1.3,1.2,1.2,6.3,2.8,6.3c1.7,0,1.7-5.2,2.8-6.3c1.2-1,5.7,0.8,6.4-1c0.6-1.6-3.2-2.3-4.4-3.8
			C54.3,81.3,54.2,81.3,54,81.3L54,81.3z M49.6,83.9c-0.9,0-1.7-0.8-1.7-1.7c0-0.9,0.8-1.7,1.7-1.7c0.9,0,1.7,0.8,1.7,1.7
			C51.2,83.1,50.5,83.9,49.6,83.9z"/>
		<path class="st1" d="M56.9,143.1c1.2,0.5,4.3,1.4,5.2,2c0.3,0.2,0.6,0.3,0.9,0.4c0.1-0.4,0.2-0.7,0.2-0.9
			c-0.1-0.3-0.7-0.6-1.2-0.9c-0.9-0.5-2-1.1-1.7-2.1c0.1-0.5,0.6-0.8,1.3-0.8c0.3,0,0.6,0,1,0.1c0.3,0,0.7,0.1,1,0.1
			c0.4,0,0.6-0.1,0.8-0.2c-1.9-0.6-7.1-0.8-7.9,1.3c0,0.1,0,0.2,0.1,0.2C56.7,142.6,56.8,142.8,56.9,143.1z"/>
		<path class="st1" d="M72.5,141.4c-0.1-0.2-0.3-0.3-0.6-0.3c-0.6,0-1.5,0.3-2.4,0.3c-0.5,0-1-0.1-1.3-0.4c-1.2-1-1-3.7-1.8-3.9
			c0,0,0,0-0.1,0c-0.8,0-0.8,3.1-1.7,3.9c-0.2,0.2-0.6,0.3-1.1,0.3c-0.7,0-1.4-0.2-2-0.2c-0.5,0-0.8,0.1-0.9,0.5
			c-0.3,1.1,2.7,1.8,2.9,2.8c0.2,1-1.6,3.6-0.8,4.2c0.1,0.1,0.2,0.1,0.3,0.1c0.9,0,2.4-2.1,3.4-2.3c0,0,0.1,0,0.1,0
			c1,0,2.4,1.9,3.3,1.9c0.1,0,0.1,0,0.2,0c0.9-0.3-1.1-3-0.8-4C69.8,143.4,72.8,142.3,72.5,141.4z M67.4,144.1
			c-0.2,0.3-0.5,0.5-0.9,0.5c-0.2,0-0.4-0.1-0.6-0.2c-0.5-0.3-0.6-1-0.3-1.5c0.2-0.3,0.5-0.4,0.9-0.4c0.2,0,0.4,0.1,0.6,0.2
			C67.6,143,67.7,143.7,67.4,144.1z"/>
		<path class="st1" d="M55.1,99.5C55.1,99.5,55.1,99.4,55.1,99.5c-0.1-0.1-0.1,0-0.1,0c-0.2,0.6,0.8,0.9,1.6,1
			C56,100.4,55.5,100,55.1,99.5z"/>
		<path class="st1" d="M56.7,99.6c0.2,0,0.4-0.1,0.4-0.2c0,0,0-0.2,0-0.3c-0.1,0-0.2,0-0.3,0c-0.2,0.1-0.7,0.1-1.2,0.2
			c0.1,0.2,0.3,0.4,0.5,0.5C56.2,99.7,56.5,99.6,56.7,99.6z"/>
		<path class="st1" d="M57.9,100.2c-0.1,0-0.1-0.1-0.2-0.2c-0.1-0.2,0-0.3,0.2-0.4c0.1,0,0.1,0,0.2,0c0.1,0,0.2,0.1,0.2,0.2
			c0,0,0,0.1,0,0.1c0,0,0.1-0.1,0.1-0.1c0,0,0,0,0.1,0c0,0,0,0,0,0.1c-0.2,0.4-0.7,0.7-1.2,0.7c0.1,0.4,0,1.1,0.2,1.2c0,0,0,0,0,0
			c0.3,0,0.4-0.8,0.8-1c0.1-0.1,0.3-0.1,0.4,0c0.2,0.1,0.5,0.2,0.7,0.2c0.1,0,0.2,0,0.2,0c0.1-0.2-0.7-0.7-0.7-1
			c0-0.3,0.7-0.9,0.5-1.1c0,0,0,0-0.1,0c-0.3-0.1-0.8,0.4-1.1,0.3c0,0,0,0,0,0c-0.3-0.1-0.6-0.8-0.9-0.9c0,0-0.1,0-0.1,0
			c-0.3,0.1,0.1,1,0,1.2c-0.1,0.2-0.9,0.3-1,0.5c0.2,0.1,0.4,0.3,0.6,0.3C57.2,100.4,57.5,100.3,57.9,100.2z"/>
		<path class="st1" d="M34,137.5c0,0,0.1,0.1,0.2,0.1c0.1,0,0.2,0,0.3,0c0.1,0,0.2,0,0.3,0c0.2,0,0.3,0.1,0.4,0.2
			c0.1,0.3-0.2,0.4-0.5,0.6c-0.1,0.1-0.3,0.2-0.3,0.3c0,0,0,0.1,0.1,0.3c0.1,0,0.2-0.1,0.3-0.1c0.3-0.2,1.6-0.5,1.6-0.7
			C36.3,137.3,34.6,137.3,34,137.5z"/>
		<path class="st1" d="M33.5,136.5C33.5,136.5,33.5,136.5,33.5,136.5c-0.3,0-0.2,0.8-0.5,1.1c-0.1,0.1-0.2,0.1-0.4,0.1
			c-0.2,0-0.5-0.1-0.7-0.1c-0.1,0-0.1,0-0.2,0.1c-0.1,0.2,0.8,0.6,0.9,0.8c0.1,0.3-0.5,1-0.2,1.1c0,0,0,0,0.1,0
			c0.2,0,0.6-0.5,0.9-0.5c0,0,0,0,0,0c0.3,0,0.7,0.6,1,0.6c0,0,0.1,0,0.1,0c0.2-0.2-0.3-0.9-0.2-1.2c0.1-0.3,0.9-0.5,0.8-0.8
			c0-0.1-0.1-0.1-0.3-0.1c-0.2,0-0.4,0-0.6,0c-0.1,0-0.2,0-0.3-0.1C33.7,137.3,33.7,136.5,33.5,136.5z M33.6,138.5
			c-0.1,0-0.1,0.1-0.2,0.1c-0.1,0-0.2,0-0.2-0.1c-0.1-0.1-0.1-0.3,0.1-0.4c0.1,0,0.1-0.1,0.2-0.1c0.1,0,0.2,0,0.2,0.1
			C33.8,138.2,33.7,138.4,33.6,138.5z"/>
		<path class="st1" d="M36.3,140.6c0,0,0.1,0,0.2,0c0.1,0,0.2,0,0.2,0c0.1,0,0.2,0,0.2,0c0.2,0,0.3,0.1,0.3,0.2
			c0.1,0.2-0.2,0.4-0.4,0.5c-0.1,0.1-0.3,0.2-0.3,0.2c0,0,0,0.1,0,0.2c0.1,0,0.1,0,0.2-0.1c0.3-0.2,1.3-0.4,1.3-0.5c0,0,0,0,0,0
			c-0.1-0.1-0.2-0.3-0.3-0.4C37.4,140.4,36.6,140.5,36.3,140.6z"/>
		<path class="st1" d="M37.1,140.8c0-0.1-0.1-0.1-0.2-0.1c-0.1,0-0.3,0-0.5,0c-0.1,0-0.2,0-0.2-0.1c-0.2-0.2-0.2-0.9-0.4-0.9
			c0,0,0,0,0,0c-0.2,0-0.2,0.7-0.4,0.9c-0.1,0.1-0.2,0.1-0.3,0.1c-0.2,0-0.4-0.1-0.6-0.1c-0.1,0-0.1,0-0.1,0.1
			c-0.1,0.2,0.6,0.5,0.7,0.7c0.1,0.2-0.4,0.8-0.2,0.9c0,0,0,0,0,0c0.2,0,0.5-0.4,0.8-0.4c0,0,0,0,0,0c0.2,0,0.6,0.5,0.8,0.5
			c0,0,0,0,0.1,0c0.2-0.1-0.2-0.8-0.2-1C36.5,141.2,37.2,141,37.1,140.8z M35.9,141.4c0,0-0.1,0-0.1,0c-0.1,0-0.2,0-0.2-0.1
			c-0.1-0.1,0-0.3,0.1-0.3c0,0,0.1,0,0.1,0c0.1,0,0.2,0,0.2,0.1C36,141.2,36,141.3,35.9,141.4z"/>
		<path class="st1" d="M38.1,143.2c0,0,0.1,0,0.2,0c0.1,0,0.1,0,0.2-0.1c0.1,0,0.1,0,0.2-0.1c0.1,0,0.2,0,0.3,0.1
			c0.1,0.2-0.1,0.3-0.3,0.5c-0.1,0.1-0.2,0.2-0.2,0.2c0,0,0,0.1,0.1,0.2c0.1,0,0.1-0.1,0.2-0.1c0.2-0.2,1.1-0.6,1-0.7
			C39.6,142.7,38.4,143,38.1,143.2z"/>
		<path class="st1" d="M37.5,142.5C37.5,142.5,37.5,142.5,37.5,142.5c-0.2,0.1,0,0.6-0.2,0.8c-0.1,0.1-0.1,0.1-0.2,0.1
			c-0.2,0-0.4,0-0.5,0c-0.1,0-0.1,0-0.1,0.1c0,0.2,0.6,0.3,0.7,0.5c0.1,0.2-0.2,0.8,0,0.8c0,0,0,0,0,0c0.2,0,0.4-0.5,0.6-0.5
			c0,0,0,0,0,0c0.2,0,0.6,0.4,0.8,0.3c0,0,0,0,0.1,0c0.1-0.2-0.3-0.6-0.3-0.8c0-0.2,0.6-0.5,0.5-0.7c0-0.1-0.1-0.1-0.2-0.1
			c-0.1,0-0.3,0.1-0.4,0.1c-0.1,0-0.2,0-0.2,0C37.8,143.1,37.7,142.5,37.5,142.5z M37.9,144c0,0-0.1,0.1-0.1,0.1
			c-0.1,0-0.1,0-0.2-0.1c-0.1-0.1-0.1-0.2,0-0.3c0,0,0.1-0.1,0.1-0.1c0.1,0,0.1,0,0.2,0.1C38,143.7,38,143.9,37.9,144z"/>
		<path class="st1" d="M40.6,145.5c0,0,0.1,0,0.1,0c0.1,0,0.1,0,0.2-0.1c0.1,0,0.1-0.1,0.2-0.1c0.1,0,0.2,0,0.3,0.1
			c0.1,0.2,0,0.3-0.2,0.5c-0.1,0.1-0.2,0.2-0.2,0.2c0,0,0,0.1,0.1,0.2c0.1,0,0.1-0.1,0.1-0.1c0.2-0.2,0.9-0.7,0.9-0.8
			C42,144.8,40.9,145.2,40.6,145.5z"/>
		<path class="st1" d="M39.7,145.9c-0.2,0.1-0.3,0.1-0.4,0.1c-0.1,0-0.1,0-0.1,0.1c0,0.2,0.6,0.2,0.7,0.3c0.1,0.2-0.1,0.8,0.1,0.8
			c0,0,0,0,0,0c0.2-0.1,0.3-0.5,0.5-0.5c0,0,0,0,0,0c0.2,0,0.6,0.3,0.7,0.2c0,0,0,0,0,0c0.1-0.2-0.4-0.5-0.4-0.7
			c0-0.2,0.5-0.5,0.3-0.7c0-0.1-0.1-0.1-0.2,0c-0.1,0-0.2,0.1-0.3,0.2c-0.1,0-0.1,0-0.2,0c-0.2-0.1-0.4-0.7-0.5-0.6c0,0,0,0,0,0
			c-0.1,0.1,0.1,0.5-0.1,0.8C39.9,145.8,39.8,145.9,39.7,145.9z M40.2,146C40.2,145.9,40.3,145.9,40.2,146c0.2-0.1,0.2-0.1,0.3,0
			c0.1,0.1,0.1,0.2,0,0.3c0,0-0.1,0.1-0.1,0.1c-0.1,0-0.1,0-0.2,0C40.2,146.2,40.2,146.1,40.2,146z"/>
		<path class="st1" d="M43.1,147.5c0,0,0.1,0,0.1-0.1c0,0,0.1-0.1,0.1-0.1c0,0,0.1-0.1,0.1-0.1c0.1-0.1,0.2-0.1,0.3,0
			c0.1,0.1,0.1,0.3,0,0.5c0,0.1-0.1,0.2-0.1,0.2c0,0,0.1,0.1,0.1,0.1c0,0,0.1-0.1,0.1-0.1c0.1-0.2,0.4-0.7,0.5-0.9
			c-0.1-0.1-0.1-0.1-0.2-0.2C43.8,146.8,43.3,147.3,43.1,147.5z"/>
		<path class="st1" d="M42.2,148.4C42.1,148.4,42.1,148.4,42.2,148.4c0,0.2,0.5,0.1,0.7,0.2c0.1,0.1,0.2,0.7,0.3,0.6c0,0,0,0,0,0
			c0.1-0.1,0.1-0.5,0.2-0.6c0,0,0,0,0,0c0.1-0.1,0.6,0,0.7-0.1c0,0,0,0,0,0c0.1-0.2-0.5-0.3-0.5-0.5c-0.1-0.1,0.3-0.6,0.1-0.7
			c-0.1,0-0.1,0-0.2,0c-0.1,0.1-0.2,0.2-0.2,0.2c-0.1,0-0.1,0.1-0.2,0.1c-0.2,0-0.5-0.4-0.6-0.4c0,0,0,0,0,0
			c-0.1,0.1,0.2,0.4,0.2,0.7c0,0.1-0.1,0.1-0.1,0.2C42.4,148.2,42.2,148.3,42.2,148.4z M43,148c0,0,0.1,0,0.2,0
			c0.1,0,0.1,0.1,0.1,0.2c0,0,0,0.1-0.1,0.1c0,0-0.1,0-0.2,0C43,148.2,42.9,148.2,43,148C43,148,43,148,43,148z"/>
		<path class="st1" d="M48.2,143.2c-1.8-1.6-3.4-3.4-4.5-5.4c-1.1-2-1.7-4.3-1.6-6.6c0-1.2,0.1-2.3,0.3-3.5c0.1-0.4,0.1-0.7,0.2-1.1
			c0.5-0.6,1.2-1,2-1.2c1.6-0.3,3.5,0.1,4.8,1.2c0.6,0.5,1.1,1.3,1.2,2.1c0.1,0.8-0.2,1.7-0.9,2.2c-0.7,0.5-1.6,0.7-2.4,0.4
			c-0.4-0.1-0.8-0.5-0.9-0.9c-0.2-0.7,1.1-1.5,0.2-1.8c0,0-0.2,0-0.3,0.4c0,0-0.1,0-0.1,0c-0.1,0.5-0.2,1,0,1.4
			c0.1,0.5,0.5,0.9,0.9,1.1c0.9,0.4,2,0.3,2.9-0.3c0.9-0.6,1.3-1.7,1.3-2.7c-0.1-1.1-0.6-2-1.3-2.8c-0.7-0.7-1.7-1.2-2.7-1.4
			c-1-0.2-2-0.3-3,0c-0.5,0.1-1,0.4-1.4,0.7l0-0.1c0.1-0.3,0.2-0.5,0.4-0.8c0.5-1.1,1.2-2.2,1.9-3.2c0,0,0,0,0,0
			c0.3-0.1,0.7-0.1,1.1-0.1c0.8,0,1.6-0.1,2.4-0.3c1.6-0.4,3.1-1,4.5-1.8c0.7-0.4,1.3-0.9,1.9-1.6c0.5-0.6,0.9-1.4,0.8-2.3
			c0,0,0,0,0,0c0,0-0.1,0-0.1,0c0,0.8-0.5,1.5-1,2c-0.5,0.5-1.2,0.9-1.9,1.3c-1.4,0.7-2.9,1.1-4.4,1.3l-2.3,0.4
			c-0.2,0-0.3,0.1-0.5,0.1c0.5-0.7,0.9-1.3,1.4-2c2.9-3.9,6.1-7.7,9.4-11.3l0,0l0,0c1.8-2.4,3.5-4.8,5.1-7.2
			c0.4-0.6,0.8-1.2,1.2-1.9c0.4-0.6,0.8-1.2,1.1-2c0.1-0.2,0.1-0.4,0.2-0.6c1-1.3,1.9-2.6,3-3.6c1.5-1.3,3.5-1.9,5.5-2
			c1.9-0.1,3.9,0.5,5.4,1.7c1.5,1.2,2.5,3,2.8,5c0.2,1.9-0.5,4-2,5.3c-1.4,1.3-3.6,2-5.5,1.4c-1.9-0.6-3.4-2.4-3.5-4.4
			c-0.1-1,0.3-2,0.9-2.8c0.6-0.8,1.6-1.3,2.6-1.4c0,0,0,0,0-0.1c0,0,0,0-0.1,0c-1,0.1-2,0.6-2.7,1.4c-0.7,0.8-1.1,1.9-1.1,2.9
			c0,2.1,1.5,4.2,3.6,4.9c2.1,0.7,4.4,0.1,6.1-1.3c1.7-1.4,2.6-3.7,2.3-5.9c-0.2-2.2-1.3-4.2-2.9-5.7c-1.7-1.4-3.9-2.2-6.1-2
			c-2.1,0.2-4.3,1-5.9,2.5c-0.9,0.9-1.6,2-2.3,3.1c0.2-0.9,0.3-1.9,0.4-2.8c0.1-1.5,0.1-3-0.3-4.5c-0.3-1.5-1-3-2.3-3.9
			c-1.2-0.9-2.6-1.5-4-1.9c-1.3-0.3-2.7-0.4-4.1-0.1c-0.1,0-0.2,0-0.4,0.1c-0.1,0-0.1,0.1-0.1,0.1c0,0.1,0.1,0.1,0.1,0.1l0,0
			c0.1,0,0.3,0,0.4-0.1c1.3-0.3,2.6-0.1,3.9,0.2c1.4,0.4,2.7,1.1,3.8,2c1.1,0.9,1.7,2.2,1.9,3.6c0.3,1.4,0.3,2.9,0.1,4.3
			c-0.2,1.4-0.4,2.9-1,4.2c-0.2,0.6-0.7,1.2-1.1,1.8c-0.4,0.6-0.7,1.1-1.1,1.7c-0.1-0.6-0.3-1.2-0.7-1.7c-0.8-1.2-2.4-1.8-3.8-1.3
			c-0.7,0.2-1.3,0.7-1.6,1.4c-0.3,0.7-0.2,1.4,0.2,2c0,0,0,0,0,0.1c0.4,0.5,0.9,0.9,1.5,1c0.1,0,0.1,0,0.2,0c0.2,0,0.4,0,0.6,0
			c0.5-0.1,0.9-0.3,1.2-0.7c0,0,0-0.1,0-0.1c0,0-0.1,0-0.1,0c0,0.1-0.1,0.1-0.1,0.1c-0.1,0.1-0.3,0.2-0.4,0.3
			c-0.3,0.1-0.7,0.2-1,0.1c-0.2-0.1-0.4-0.2-0.6-0.3c0,0-0.1,0-0.1-0.1c-0.2-0.2-0.4-0.3-0.5-0.5c0,0-0.1-0.1-0.1-0.1
			c-0.3-0.5-0.3-1.1-0.1-1.5c0.2-0.5,0.7-0.8,1.2-0.9c1.1-0.2,2.1,0.4,2.8,1.2c0.5,0.5,0.8,1.2,0.8,1.9c-1.5,2.2-3.1,4.3-4.7,6.3
			c-3.4,3.6-6.7,7.3-9.8,11.2c-1.5,2-3.1,3.9-4.3,6.2c-0.1,0.3-0.3,0.6-0.4,0.9l-0.4,1c-0.1,0.6-0.3,1.2-0.4,1.9
			c-0.3,1.3-0.4,2.5-0.4,3.9c0,2.6,0.7,5.3,2,7.6c1.3,2.3,3.2,4.1,5.2,5.7c3.2,2.4,6,5,9,7.6l1.3,0C54.5,148.9,51.4,146,48.2,143.2z
			"/>
		<path class="st1" d="M44,144.2l-1.3-1.1c-0.4-0.4-0.8-0.8-1.2-1.2c-0.8-0.8-1.5-1.6-2.2-2.5c-1.3-1.8-2.2-3.8-2.4-6
			c-0.3-2.2,0-4.5,0.5-6.7c0.5-2.1,1.8-4.1,3.2-5.9c1.4-1.8,3-3.5,4.6-5.3c0.8-0.9,1.6-1.8,2.3-2.7c0.3-0.5,0.7-1,0.9-1.5
			c0.3-0.5,0.5-1.1,0.4-1.7c0-0.1,0-0.1-0.1-0.1c-0.1,0-0.1,0-0.1,0.1v0c0,1.1-0.8,2.1-1.5,3c-0.7,0.9-1.6,1.7-2.4,2.5
			c-1.6,1.6-3.3,3.2-4.9,5c-1,1.2-2.1,2.5-2.8,4c0-0.4,0.1-0.8,0.1-1.2c0.1-1.6,0.1-3.3-0.7-4.9c-0.4-0.8-1-1.5-1.7-2
			c-0.2-0.1-0.3-0.2-0.6-0.3c-0.3-0.1-0.5-0.1-0.7-0.1c-0.5,0-0.9,0.1-1.4,0.2c-0.9,0.3-1.7,1.1-1.8,2c-0.1,0.9,0.1,1.7,0.5,2.5
			c0,0,0,0,0.1,0c0,0,0,0,0-0.1c-0.1-0.8-0.1-1.6,0.1-2.3c0.3-0.6,0.8-1.1,1.4-1.2c0.3-0.1,0.7-0.1,1-0.1c0.2,0,0.3,0,0.4,0.1
			c0.1,0,0.3,0.2,0.4,0.2c0.6,0.3,1.1,0.9,1.5,1.5c0.7,1.3,0.9,2.9,0.9,4.5c0,0.7-0.4,2.3-0.4,3.1c0,0,0,0.1,0,0.1c0,0,0,0,0,0.2
			c-0.6,2.3-1.1,4.7-0.8,7.2c0.2,2.5,1.1,4.9,2.4,7c0,0,0.1,0.1,0.1,0.1c0.1,0.1,0.2,0.3,0.3,0.4c0.6,0.8,1.2,1.6,1.9,2.4
			c0.4,0.4,0.9,0.8,1.3,1.2l1.4,1.1c0.5,0.4,0.9,0.7,1.4,1.1c0.1,0.1,0.1,0.1,0.2,0.2c2,1.6,3.7,3.4,5.6,5l2.1,0
			C49.6,149.2,46.9,146.6,44,144.2z"/>
		<path class="st0" d="M36.2,126.2C36.2,126.2,36.2,126.3,36.2,126.2L36.2,126.2z"/>
		<path class="st1" d="M61.2,149.3c-1.2-1.5-2.4-3-3.4-4.5c-0.2-0.4-0.5-0.8-0.7-1.2c-0.1-0.2-0.2-0.3-0.2-0.5
			c-0.1-0.2-0.2-0.5-0.3-0.7c0-0.1,0-0.2-0.1-0.2c-0.3-0.8-0.4-1.6-0.6-2.4c-0.3-1.8-0.3-3.7-0.2-5.5c0.1-1.8,0.5-3.6,1.2-5.3
			c0.6-1.7,1.6-3.1,3-4.3c2.6-2.5,6.1-4.2,9.7-4.6c1.8-0.2,3.6,0,5.2,0.8c1.6,0.8,2.9,2.1,3.8,3.7c0.9,1.6,1.3,3.4,1.3,5.2
			c-0.1,1.8-0.7,3.6-1.8,5c-1.1,1.4-2.8,2.3-4.6,2.6c-1.8,0.3-3.7,0.1-5.4-0.7c-1.7-0.8-3.1-2.2-3.4-4.1c-0.1-0.9-0.1-1.9,0.4-2.7
			c0.5-0.8,1.3-1.4,2.2-1.6l0,0c0.1,0,0.1-0.1,0.1-0.1c0-0.1-0.1-0.1-0.1-0.1c-1,0.2-1.8,0.8-2.4,1.6c-0.6,0.8-0.6,1.9-0.5,2.9
			c0.3,2,1.8,3.6,3.5,4.5c1.7,0.9,3.8,1.3,5.8,1c2-0.2,4-1.1,5.3-2.8c0.6-0.8,1.1-1.7,1.5-2.6c0.4-0.9,0.6-1.9,0.6-3
			c0.1-2-0.3-4.1-1.3-5.9c-0.9-1.8-2.4-3.3-4.3-4.3c-1.8-1-4-1.3-6-1.1c-4,0.4-7.8,2.1-10.9,4.8c-0.8,0.7-1.4,1.4-2.1,2.3
			c-0.6,0.9-1.1,1.8-1.5,2.7c-0.7,1.9-1.1,3.9-1.2,5.9c-0.1,2,0,4,0.4,5.9c0.2,1,0.5,1.9,0.9,2.9c0.4,1,1,1.8,1.6,2.6
			c1.8,2.4,3.4,4.5,5.3,6.4l1.5,0C62.7,151.1,61.9,150.2,61.2,149.3z"/>
		<path class="st1" d="M33.2,92.4c3.1-0.1,6.5,0.9,8.3,3.6c0.9,1.3,1.3,2.9,1.2,4.5c-0.1,0.8-0.3,1.6-0.6,2.2
			c-0.4,0.6-1,1.2-1.7,1.6c-0.7,0.4-1.5,0.7-2.3,0.9c-0.8,0.2-1.6,0.1-2.3-0.2c-0.7-0.3-1.3-1-1.5-1.8c-0.2-0.4-0.2-0.8-0.3-1.2
			l0-1.3l0,0c0-0.1,0-0.1-0.1-0.1c-0.1,0-0.1,0-0.1,0.1l-0.1,1.3c0.1,0.4,0.1,0.9,0.2,1.3c0.2,0.9,0.8,1.7,1.6,2.2
			c0.8,0.5,1.8,0.6,2.7,0.5c0.9-0.1,1.8-0.4,2.6-0.8c0.8-0.5,1.6-1,2.2-1.9c0.5-0.9,0.8-1.7,0.9-2.7c0.3-1.9-0.2-3.9-1.1-5.5
			c-1-1.7-2.5-3-4.2-3.8c-1.7-0.8-3.7-1.2-5.6-0.9c-1.8,0.2-3.5,0.9-5,2c-0.6,1.1-1.1,2.1-1.5,2.9C28.4,93.5,30.7,92.5,33.2,92.4z"
			/>
		<path class="st0" d="M146,82.2C145.6,82.2,145.5,82.3,146,82.2L146,82.2z"/>
		<path class="st1" d="M121.7,40.4l0.2,0.2c1.8-1.8,3.2-4,4.3-6.3c1.1-2.3,1.8-4.9,2.1-7.5c0.1-0.7,0.1-1.3,0.1-2c0-0.7,0-1.3-0.1-2
			c0-0.7-0.2-1.3-0.3-2c-0.1-0.7-0.4-1.3-0.7-1.9c-1.1-2.5-3.1-4.7-5.5-5.7l-0.2,0.2c1.3,2.3,2.3,4.3,2.9,6.5
			c0.6,2.2,1.3,4.4,1.4,6.8c0,2.4-0.3,4.8-1.1,7.1C124.1,36.1,123,38.3,121.7,40.4z"/>
	</g>
</g>
<g>
	<path class="st1" d="M126.5,14.9c0.7,1.1,3.3,5.2,3.6,5.9c0.4,1.1,0.7,2.3,0.9,3.5c0,0.3,0.4,2.1,0.3,2.3c0,0.8,0.1,1.7-0.1,2.5
		c0.1,0.5-0.1,1-0.1,1.5c0,0.3-0.7,2.2-1,2.9c-0.4,0.8-2.2,4.6-2.6,5.2c-0.4,0.8-1,1.4-1.6,2c-0.6,0.6-0.9,1.3-1.2,2
		c-0.1,0.2-0.2,0.5-0.2,0.7c-0.1,0.7,0.1,1.3,0.4,2c0.5,0.9,1.2,1.8,1.9,2.6c0.7,0.8,1.4,1.5,2.1,2.2c0.4,0.4,0.8,0.8,1.2,1.2
		c0.4,0.4,0.9,0.8,1.4,1.1c0.8,0.5,1.7,1,2.5,1.4c0.3,0.1,7.2,3,7.3,3.2c1,0.3,3.4,0.8,3.5,0.8c0.2,0,0.3,0,0.5,0
		c0.5,0.2,1,0.2,1.6,0.3c0.3,0.1,0.6,0.1,1,0.1c0.3,0,0.7,0,1,0c0.6,0,1.1,0,1.7,0c0.3,0,0.5,0,0.7,0.1c0.6,0.2,1.2,0.5,1.7,0.9
		c0.8,0.6,1,1.5,1.2,2.4c0.1,0.6,0,1.6-0.2,2.3c-0.1,0.2-0.2,0.4-0.2,0.6c-0.2,0.7-0.6,1.2-1,1.8c-0.7,0.8-1.5,1.4-2.4,2
		c-0.8,0.5-1.7,1-2.5,1.5c-0.9,0.5-1.3,1.5-1,2.4c0.2,0.6,0.5,1,0.9,1.5c0.7,0.7,1.6,1.1,2.3,1.8c0.4,0.4,0.9,0.7,1.1,1.3
		c0.1,0.3,0.2,0.5,0.2,0.8c-0.1,0.3-0.1,0.6-0.3,0.8c-1.4,3-3.8,3.2-4.2,3.3c0,0-0.1,0-0.1,0c0.2,0,0.3-0.1,0.5-0.1
		c0.7,0,1.7,0.4,3.1,2c0,0,0.1,0.1,0.1,0.2c0,0.6,0.1,1.3-0.1,1.9c-0.1,0.2-0.1,0.5-0.2,0.7c-0.2,0.5-0.4,1-0.8,1.4
		c-0.6,0.6-1.2,1-1.9,1.4c-0.6,0.5-1.1,1-1.5,1.7c-0.2,0.4-0.4,0.8-0.5,1.2c-0.3,0.8-0.6,1.4-0.3,2.3c0.1,0.4,0.3,0.8,0.5,1.2
		c0.3,0.4,0.6,0.8,0.9,1.3c0.2,0.3,0.3,0.6,0.5,0.9c0.4,0.5,0.6,1,0.8,1.6c0.3,0.9,0.5,1.8,0.5,2.8c0,0.6,0,1.1-0.1,1.7
		c-0.1,0.4-0.1,0.9-0.3,1.3c-0.2,0.6-0.1,4.2-5.9,7.6c-0.5,0.3-1.2,0.3-1.8,0.5c-0.8,0.3-1.6,0.4-2.4,0.5c-0.6,0.1-1.3,0.1-1.9,0.1
		c-5.8,0-11.7,0-17.5,0c-0.4,0-2.3,0.2-2.9,0.2c-0.3,0-1.5,0-1.7,0.1c-0.3,0.1-1.3,0.2-1.5,0.3c-0.2,0-1.5,0.4-1.9,0.6
		c-0.5,0.2-1,0.3-1.4,0.5c-1,0.5-2.1,1-3,1.7c-0.9,0.4-7,5.3-7.6,6.2c-0.5,0.8-1,1.6-1.6,2.4c-0.4,0.5-0.8,1.1-1.2,1.7
		c-0.4,0.6-0.9,1.2-1.3,1.9c-0.3,0.5-0.7,1-0.9,1.5c-0.7,1.5-1.5,2.9-2.3,4.4c-0.4,0.8-0.8,1.5-1.1,2.3c-0.3,0.9-0.6,1.8-0.9,2.6
		c-0.2,0.6-0.5,1.2-0.5,1.8c0,0.9-0.1,1.8,0.1,2.7c0.1,0.5,0.3,0.9,0.6,1.3c0.3,0.5,0.7,0.9,1.1,1.3c0.7,0.7,1.3,1.3,1.9,2.1
		c0.3,0.4,0.6,0.8,0.5,1.4c-0.1,0.2-0.3,0.4-0.5,0.6c-0.3,0.1-0.5,0.1-0.7,0.1c-0.2,0-0.3-0.1-0.4,0.1c-0.4,0-0.8,0.1-1.2,0
		c-0.2-0.1-0.5-0.1-0.6-0.1c-0.4,0.2-0.7,0.1-1.1,0.1c-6.9,0-22,0-22.7-0.1l-2,0l-1.5,0l-4.5,0l-1.3,0l-4,0l-2.1,0l-4,0
		c-0.5,0-1,0-1.5,0c10.8,5.5,23.1,8.6,36,8.6c44.2,0,80.1-35.9,80.1-80.1C160.6,53.4,147.1,29.4,126.5,14.9z"/>
	<path class="st1" d="M33.4,145.3C33.4,145.3,33.4,145.2,33.4,145.3c-0.4-0.6-0.8-1-1-1.6c-0.3-0.6-0.6-1.1-0.8-1.7
		c-0.5-1.1-1.1-2.1-1.7-3.1c-0.6-0.9-1-1.8-1.6-2.7c-0.4-0.6-1.3-2.9-1.5-3.3c-0.3-0.9-1.3-3.6-1.4-4.2c-0.2-0.7-2.5-11.1-2.6-11.4
		c-0.1-0.5-0.1-3.6-0.1-4.5c0-0.9-0.1-4.8,0.1-5.7c0.1-0.4,0-0.8,0.1-1.2c0.1-0.3,0-0.6,0.1-0.9c0.1-0.3,0.1-0.6,0.1-0.9
		c0.1-0.5,0.3-1,0.3-1.5c0.3-0.6,0.3-1.4,0.5-2c0.1-0.5,0.2-0.9,0.5-1.3c0.3-0.7,0.8-1.3,1.2-1.9c0.1-0.2,0.5-0.9,1.1-2
		c0.4-0.8,1-1.8,1.5-2.9c2.2-4.3,5.1-9.8,5.2-9.9c0.2-0.3,0.4-0.5,0.6-0.8c0.4-0.5,4-4.4,4.4-4.7c0.9-0.9,17.6-14.6,18.3-15.1
		c0.8-0.5,19.8-12.6,20.4-13c0.6-0.4,13.4-8.8,14.1-9.4c0.3-0.2,0.5-0.5,0.8-0.7c0.5-0.3,1-0.8,1.5-1.2c0.6-0.4,1.1-1,1.7-1.4
		c0.7-0.6,1.5-1.1,2.2-1.7c0.6-0.5,1.1-1,1.7-1.5c1.4-1.4,2.8-2.8,4.2-4.3c0.4-0.4,0.7-0.8,1.1-1.2c0.2-0.2,0.3-0.4,0.4-0.7
		c0.4-0.6,0.9-1.2,1.3-1.9c0.4-0.7,0.9-1.5,1.3-2.2c0.5-0.9,0.9-1.8,1.4-2.7c0.3-0.6,0.6-1.2,0.8-1.8c0-0.1,0.1-0.1,0.1-0.2
		c0.1-0.6,0.3-1.2,0.5-1.8c0.1-0.5,1.6-2.5,2.4-3.5c0.2,1.5,0.1,3-0.2,4.4c-0.5,2.1-1.3,4.1-2.4,6c-1.1,1.9-2.3,3.8-3.6,5.7
		c-1.3,1.9-2.6,3.7-4.1,5.5c-2.9,3.6-5.9,7.1-8.7,10.9c-1.4,1.9-2.6,3.9-3.5,6.1c-0.5,1.1-0.8,2.3-0.9,3.5c-0.1,1.2,0.2,2.4,0.6,3.5
		l0.3-0.1c-0.3-1.1-0.5-2.2-0.3-3.3c0.2-1.1,0.5-2.2,1.1-3.2c1-2,2.4-3.8,3.9-5.6c2.9-3.5,6.2-6.8,9.3-10.2
		c3.1-3.5,6.4-6.9,8.5-11.4c1-2.2,1.8-4.6,1.8-7.1c0.1-1.8-0.3-3.5-0.9-5.1c0.4,0.1,0.7,0.4,1,0.7c0.1,0.1,0.3,0.3,0.4,0.5
		c0.2,0.2,0.3,0.5,0.5,0.7c0.4,0.5,0.7,1.1,1.1,1.6c0.4,0.6,0.8,1.2,1.2,1.8c0.4,0.7,0.7,1.5,1.1,2.2c0.3,0.5,0.4,1.1,0.9,1.4h0.6
		c0.4-0.3,0.4-0.8,0.7-1.1c0-0.2,0-0.5,0.1-0.7c0.4,1,0.7,2,0.9,3c0.4,2.3,0.4,4.7,0,7.1c-0.4,2.4-1.3,4.7-2.5,6.8l0.2,0.2
		c1.7-1.9,2.9-4.2,3.7-6.6c0.8-2.5,1.1-5.1,0.9-7.7c-0.2-2.6-0.7-5.4-2.2-7.6c-1.4-2.2-3.5-4-5.9-4.9c-0.1,0-0.1-0.1-0.2-0.2
		c-0.2-0.2-0.5-0.4-0.8-0.6c-0.4-0.3-0.8-0.5-1.2-0.8c-0.5-0.3-1.1-0.6-1.6-0.9c-0.7-0.4-1.5-0.7-2.3-1c-0.7-0.2-1.3-0.6-2-0.7
		c-0.5-0.3-0.9,0-1.3,0.1c-0.3,0.1-0.6,0.4-0.7,0.8c-0.1,0.4,0,0.9,0,1.3c0.2,0.2,0,0.5,0.1,0.7c0.1,0.3,0.1,0.5,0.1,0.7
		c0,0.6,0,1.2-0.1,1.7c-0.1,0.5-0.3,1-0.3,1.5c-0.3,0.2-0.1,0.5-0.2,0.8c-0.1,0.2-0.1,0.5-0.1,0.8c-0.1,0.4-0.2,0.8-0.3,1.3
		c-0.1,0.4-0.3,0.7-0.3,1.1c-0.1,0.8-0.3,1.5-0.5,2.2c-0.2,0.6-0.5,1.1-0.7,1.7c-0.3,0.7-0.7,1.3-1,2c-0.3,0.6-0.6,1.1-0.8,1.7
		c-0.2,0.5-0.4,1.1-0.7,1.6c-0.3,0.6-0.7,1.2-1.2,1.6c-0.6,0.5-1.1,1.1-1.7,1.5c-0.2,0.2-0.5,0.3-0.7,0.5c-0.9,0.7-1.9,0.9-2.9,1.3
		c-0.2,0.1-0.6,0-0.8,0.1c-0.3,0.2-0.5,0-0.8,0.2c-0.2,0.1-0.5,0-0.8,0.1c-0.2,0.1-0.5,0-0.8,0c-0.2,0-0.5,0.1-0.7,0.1
		c-0.4,0-0.8-0.1-1.1,0.1c-0.7-0.1-1.4,0.1-2.1,0.1c-0.2,0-0.4-0.1-0.6,0.1c-0.5,0-1,0-1.5,0c-0.2-0.2-0.5-0.1-0.7-0.1
		c-0.2,0-0.5-0.1-0.7-0.1c-0.6,0-1.1,0-1.7,0c-0.5,0-1.1,0.1-1.6,0.1c-0.9,0-11.9,0.5-12.8,0.6c-0.3,0-0.6,0-0.9,0
		c-1.2,0.4-2.5,0.9-3.6,1.6c-2.1,1.2-3.9,2.9-5.3,4.8c-1.5,1.9-2.5,4.2-3.2,6.6l-0.2,0c0.3-2.5,1.2-4.9,2.6-7.1
		c1.4-2.2,3.2-4.1,5.3-5.6c2.1-1.5,4.5-2.8,7.1-3.2c2.2-0.4,4.6-0.3,6.7,0.4c0.1,0,0.1,0,0.2,0c0.3,0,0.5,0.1,0.7,0.1
		c0.7,0,1.4,0,2.1,0c0.7,0,1.3,0.1,2,0.1c1.9,0,3.8,0,5.8,0c0.4,0,0.9,0,1.3-0.1c0.3-0.1,0.6,0,0.9,0c0.3,0,0.6-0.1,1-0.1
		c0.4,0,0.7,0,1.1-0.1c0.7-0.3,1.4-0.3,2.1-0.5c0.7-0.2,1.3-0.4,2-0.7c0.7-0.3,1.3-0.7,1.9-1.2c0.6-0.5,1.2-1,1.6-1.7
		c0.5-0.7,0.8-1.4,1.2-2.1c0.2-0.3,0.3-0.7,0.4-1c0.2-0.7,0.4-1.5,0.7-2.2c0.1-0.3,0.2-0.5,0.3-0.8c0.1-0.3,0-0.6,0.1-0.8
		c0.1-0.3,0-0.5,0.1-0.8c0.1-0.3,0.1-0.6,0.1-0.9c0-0.1,0-0.2,0-0.2c0.2-0.5,0.2-1,0.3-1.5c0.1-0.2,0-0.4,0.1-0.7
		c0.1-0.2,0-0.5,0.1-0.7c0.1-0.3,0-0.6,0-0.9c0-0.3,0.1-0.6,0.1-0.8c0-0.7,0-1.3,0.1-2c0.1-0.5,0-1.1,0.1-1.6c0.1-0.3,0-0.7-0.2-1
		c-0.1-0.1-0.1-0.2-0.2-0.3c-0.5,0-0.7,0.1-0.9,0.5c-0.3,0.5-0.5,1.1-0.7,1.7c-0.5,1.1-1.1,2.1-1.6,3.2c-0.3,0.5-0.5,1.1-0.8,1.6
		c-0.3,0.6-0.8,1.1-1.1,1.6c-0.4,0.6-4.2,3.4-4.8,3.7c-0.3,0.2-0.7,0.3-1.1,0.5c-0.3,0.1-0.6,0.2-1,0.3c-0.2,0.1-0.4,0-0.6,0
		c-0.1,0-0.1,0-0.2,0.1c-1.5,0.4-3,0.7-4.6,0.6c-0.5,0-1,0-1.5-0.1c-1.3-0.1-2.7-0.5-3.9-1.2c-0.8-0.5-1.5-1.1-2.1-1.8
		c-0.5-0.6-0.9-1.2-1.2-1.9c0,0,0,0,0,0l0,0c-0.1-0.3-0.3-0.5-0.4-0.8c-0.2-0.4-0.4-0.8-0.5-1.3c-0.1-0.3-0.2-0.6-0.2-0.9
		c0-0.7,0-1.3,0-2c0-0.4,0.1-0.8,0.2-1.1c0.1-0.5,0.4-1,0.7-1.4c0.2-0.3,0.4-0.6,0.6-0.9c0.3-0.4,0.7-0.8,1.2-1C77.8,6,78,6,78.2,6
		c0,0.5-0.2,0.8-0.4,1.1c-0.3,0.4-0.6,1-0.9,1.4c-0.3,0.4-0.4,0.9-0.5,1.4c-0.1,0.2-0.1,0.4-0.1,0.7c-0.1,0.8,0.1,1.5,0.4,2.2
		c0.5,1.4,1.3,2.6,2.4,3.6c0.4,0.4,0.9,0.7,1.4,1c0.1,0.1,0.2,0.1,0.3,0.2c0.7,0.3,1.3,0.6,2,0.8c0,0,0,0,0,0c0,0,0,0,0,0
		c0.7,0.2,1.4,0.4,2.1,0.5c1.2,0.2,2.4,0.2,3.6,0c0.4-0.1,0.9-0.1,1.3-0.2c0.1,0,0.1,0,0.2,0c0.1,0,0.2,0,0.3-0.1c0,0,0,0,0,0
		c0.2-0.1,0.5-0.2,0.7-0.4c0.2-0.1,0.4-0.2,0.6-0.4c0.7-0.6,1.4-1.2,2-1.8c0.5-0.4,0.9-0.9,1.3-1.4c0,0,0.1-0.1,0.1-0.1
		c0.3-0.5,0.7-1.1,1.1-1.6c0.4-0.7,0.9-1.3,1.3-2s0.9-1.3,1.1-2.1c0.2-0.8,0.5-1.6,0.9-2.3c0.2-0.4,0.3-0.7,0.5-1.1
		c0.3-0.7,0.5-1.5,0.7-2.3c-6.5-1.7-13.2-2.6-20.2-2.6C36.3,0.4,0.4,36.3,0.4,80.5C0.4,107.1,13.4,130.7,33.4,145.3z M86.2,33.5
		c0.2-0.2,0.4-0.5,0.7-0.7c0.5-0.5,1.4-0.5,1.9,0c0.3,0.3,0.6,0.6,0.7,1.1c0.2,0.6,0,1.1-0.3,1.5c-0.2,0.3-0.5,0.5-0.7,0.7h-1.1
		c-0.6-0.3-1-0.8-1.2-1.4V33.5z M78.2,32.7c0.3-0.3,0.5-0.6,0.8-0.9c0.7-0.6,1.7-0.6,2.4,0c0.4,0.4,0.7,0.8,0.9,1.3
		c0.2,0.7,0,1.3-0.4,1.8c-0.3,0.3-0.6,0.6-0.9,0.8h-1.3c-0.7-0.4-1.2-0.9-1.5-1.7V32.7z M65.5,39.3c0.3-0.3,0.6-0.8,1-1.1
		c0.8-0.8,2.1-0.8,2.9,0c0.5,0.5,0.9,0.9,1.1,1.6c0.3,0.9,0,1.6-0.5,2.3c-0.3,0.4-0.8,0.7-1.1,1h-1.6c-0.9-0.5-1.5-1.2-1.9-2.1V39.3
		z M90.3,2.2C91,2,91.7,2,92.6,3c0,0.3,0.1,0.6,0.1,0.8c0.1,0.8-0.7,1.5-1.6,1.6c-0.5,0-0.9,0-1.3-0.4c-0.1-0.1-0.3-0.2-0.4-0.4
		c0-0.1-0.1-0.2-0.2-0.3C89.1,3.4,89.3,2.6,90.3,2.2z M72.7,24.8c0-0.2,0-0.4,0-0.6c0.1-0.2,0.2-0.4,0.3-0.6
		c0.3-0.3,0.6-0.6,1.1-0.6c0.3,0,0.6,0,0.9,0c0.4,0.2,0.7,0.6,1,0.9c0,0.4,0.1,0.8,0.1,1.1c-0.9,1.8-2.7,1.6-3.5,0.2V24.8z
		 M63.2,25.2c0.2-0.3,0.4-0.6,0.8-0.8c0.8-0.1,1.5,0,1.9,0.9v0.5c-0.2,0.5-0.6,0.8-1.2,1c-0.6,0.1-1.1,0-1.5-0.7
		C63.1,25.9,63,25.5,63.2,25.2z M40.8,40.1c0.2,0,0.5,0,0.7,0.2c0.3,0.2,0.2,0.5,0.4,0.7c0,0.4-0.3,0.6-0.5,0.8
		c-0.5,0-1,0.1-1.3-0.7C40.1,40.8,40,40.4,40.8,40.1z"/>
</g>
</svg>
